<svg width="58" height="40" viewBox="0 0 58 40" fill="none" xmlns="http://www.w3.org/2000/svg">
<g clip-path="url(#clip0_12861_2120)">
<path d="M16.9111 3.30432C16.9111 2.18255 17.0981 1.35401 17.472 0.810839C17.8459 0.269634 18.4147 -0.00195312 19.1803 -0.00195312C19.9458 -0.00195312 20.4851 0.271602 20.8531 0.816743C21.2231 1.36188 21.4061 2.19239 21.4061 3.30235V18.7966C21.4061 19.9183 21.2231 20.7469 20.8609 21.2841C20.4969 21.8214 19.936 22.0891 19.1803 22.0891C18.4245 22.0891 17.844 21.8175 17.472 21.2763C17.0981 20.7351 16.9111 19.9065 16.9111 18.7966V3.30432Z" fill="white"/>
<path d="M23.3997 3.30432C23.3997 2.18255 23.5866 1.35401 23.9605 0.810839C24.3345 0.267666 24.9032 -0.00195312 25.6688 -0.00195312C26.4343 -0.00195312 26.9736 0.271602 27.3416 0.816743C27.7116 1.36188 27.8946 2.19239 27.8946 3.30235V18.7966C27.8946 19.9183 27.7116 20.7469 27.3495 21.2841C26.9854 21.8214 26.4245 22.0891 25.6688 22.0891C24.9131 22.0891 24.3325 21.8175 23.9605 21.2763C23.5866 20.7351 23.3997 19.9065 23.3997 18.7966V3.30432Z" fill="white"/>
<path d="M28.8511 14.2603C28.8511 11.9065 29.5714 9.96999 31.0139 8.45264C32.4565 6.9353 34.2887 6.17761 36.5126 6.17761C38.7364 6.17761 40.5746 6.93333 42.0033 8.44674C43.4321 9.96015 44.1465 11.8986 44.1465 14.2603C44.1465 16.6219 43.4321 18.5624 42.0033 20.0797C40.5746 21.597 38.7443 22.3567 36.5126 22.3567C34.2808 22.3567 32.4565 21.5951 31.0139 20.0718C29.5714 18.5486 28.8511 16.6121 28.8511 14.2583V14.2603ZM33.531 14.2052C33.531 15.3624 33.8065 16.2932 34.3576 16.9998C34.9086 17.7043 35.627 18.0566 36.5145 18.0566C37.4021 18.0566 38.1204 17.7023 38.6715 16.9938C39.2225 16.2834 39.4981 15.3545 39.4981 14.2071C39.4981 13.0598 39.2147 12.186 38.6498 11.4814C38.085 10.7749 37.3726 10.4226 36.5126 10.4226C35.6525 10.4226 34.9185 10.7729 34.3615 11.4736C33.8065 12.1742 33.5291 13.0854 33.5291 14.2052H33.531Z" fill="white"/>
<path d="M14.4846 7.2266C14.1205 6.69523 13.5616 6.42955 12.8079 6.42955C12.3611 6.42955 11.9557 6.5555 11.5916 6.79363C11.2276 7.03176 10.9068 7.39388 10.6411 7.87014C10.1943 7.325 9.66298 6.91959 9.07454 6.6539C8.47429 6.38822 7.8032 6.26227 7.0337 6.26227C5.07749 6.26227 3.41255 7.03176 2.0428 8.56879C0.686839 10.1058 0 12.0069 0 14.2583C0 16.5097 0.657319 18.4384 1.98573 19.9617C3.30037 21.4849 4.93579 22.2406 6.86445 22.2406C7.63395 22.2406 8.33259 22.1009 8.98991 21.8077C9.63346 21.5144 10.1924 21.0815 10.6391 20.5225C10.891 21.0677 11.1843 21.4593 11.5346 21.7112C11.8691 21.9631 12.3041 22.0891 12.8059 22.0891C13.5459 22.0891 14.1068 21.8234 14.4827 21.2783C14.8467 20.7331 15.0278 19.9085 15.0278 18.8045V9.70433C15.0278 8.5865 14.8467 7.7619 14.4827 7.23053L14.4846 7.2266ZM10.5565 16.9978L10.0664 17.5567C9.91292 17.7378 9.70234 17.8637 9.47995 17.9346C9.28512 17.9897 9.07454 18.0054 8.8797 17.9621C7.9567 17.7673 6.60074 17.3186 5.34317 16.2145C4.08561 15.1105 3.46962 13.8234 3.16261 12.9437C3.0091 12.5245 3.1075 12.0482 3.41451 11.7137L3.88881 11.1548C4.23911 10.7631 4.83936 10.7218 5.231 11.0564L5.94342 11.6861C6.33506 12.0364 6.37638 12.6367 6.04182 13.0283L5.84699 13.2527C5.76236 13.3373 5.74859 13.4475 5.77811 13.5597C5.89028 13.8942 6.12841 14.3705 6.60271 14.7897C7.077 15.1951 7.58081 15.3762 7.93112 15.4332C8.0433 15.4608 8.15547 15.4195 8.22435 15.3348L8.41919 15.1105C8.58647 14.9294 8.81082 14.8173 9.06273 14.7897C9.32841 14.7759 9.56654 14.8605 9.76138 15.0278L10.4738 15.6576C10.6549 15.8249 10.767 16.0492 10.7946 16.3149C10.8084 16.5668 10.7237 16.8049 10.5565 16.9998V16.9978Z" fill="white"/>
<path d="M0 32.1397C0 29.8273 0.692743 27.9498 2.0802 26.5092C3.46765 25.0686 5.29004 24.3483 7.54736 24.3483C9.00566 24.3483 10.1904 24.6101 11.0957 25.1296C12.001 25.6492 12.4556 26.3282 12.4556 27.1626C12.4556 27.6979 12.2824 28.1427 11.938 28.4949C11.5936 28.8472 11.1587 29.0243 10.6332 29.0243C10.4069 29.0243 9.94834 28.9122 9.25953 28.6898C8.57073 28.4694 8 28.3572 7.54736 28.3572C6.6401 28.3572 5.908 28.6957 5.35105 29.3786C4.7941 30.0576 4.51464 30.951 4.51464 32.0571C4.51464 33.1631 4.8 34.1136 5.37073 34.771C5.94145 35.4283 6.72079 35.7569 7.7107 35.7569C8.1909 35.7569 8.76359 35.6448 9.43075 35.4243C10.0979 35.202 10.5309 35.0898 10.7296 35.0898C11.2098 35.0898 11.6133 35.2748 11.94 35.6408C12.2667 36.0088 12.43 36.4595 12.43 36.9948C12.43 37.8017 11.936 38.4905 10.9481 39.0632C9.96015 39.6339 8.73604 39.9193 7.27577 39.9193C5.11882 39.9193 3.36531 39.201 2.01919 37.7643C0.673063 36.3257 0 34.4521 0 32.1417L0 32.1397Z" fill="white"/>
<path d="M13.2329 32.1397C13.2329 29.8549 13.9335 27.9754 15.3328 26.5013C16.734 25.0293 18.5131 24.2913 20.6701 24.2913C22.827 24.2913 24.614 25.0253 26.0014 26.4935C27.3889 27.9616 28.0816 29.843 28.0816 32.1378C28.0816 34.4325 27.3889 36.3159 26.0014 37.7879C24.614 39.262 22.8368 39.998 20.6701 39.998C18.5033 39.998 16.734 39.258 15.3328 37.7801C13.9316 36.3021 13.2329 34.4207 13.2329 32.1358V32.1397ZM17.7751 32.0846C17.7751 33.2084 18.0428 34.1117 18.5781 34.7985C19.1134 35.4814 19.81 35.8239 20.672 35.8239C21.534 35.8239 22.2327 35.4795 22.766 34.7906C23.3013 34.1018 23.5689 33.1985 23.5689 32.0846C23.5689 30.9707 23.2954 30.1225 22.7463 29.4396C22.1972 28.7547 21.5065 28.4123 20.672 28.4123C19.8376 28.4123 19.1232 28.7528 18.584 29.4337C18.0447 30.1127 17.7751 30.9983 17.7751 32.0866V32.0846Z" fill="white"/>
<path d="M29.3884 32.1397C29.3884 29.8273 30.0812 27.9498 31.4686 26.5092C32.8561 25.0686 34.6785 24.3483 36.9358 24.3483C38.3941 24.3483 39.5788 24.6101 40.4841 25.1296C41.3914 25.6512 41.844 26.3282 41.844 27.1626C41.844 27.6979 41.6708 28.1427 41.3264 28.4949C40.982 28.8472 40.5471 29.0243 40.0216 29.0243C39.7953 29.0243 39.3368 28.9122 38.648 28.6898C37.9592 28.4694 37.3884 28.3572 36.9358 28.3572C36.0285 28.3572 35.2964 28.6957 34.7395 29.3786C34.1825 30.0576 33.9031 30.951 33.9031 32.0571C33.9031 33.1631 34.1884 34.1136 34.7592 34.771C35.3299 35.4283 36.1092 35.7569 37.0991 35.7569C37.5793 35.7569 38.152 35.6448 38.8192 35.4243C39.4863 35.202 39.9193 35.0898 40.1181 35.0898C40.5983 35.0898 41.0017 35.2748 41.3284 35.6408C41.6551 36.0088 41.8184 36.4595 41.8184 36.9948C41.8184 37.8017 41.3245 38.4905 40.3365 39.0632C39.3486 39.6359 38.1245 39.9193 36.6642 39.9193C34.5072 39.9193 32.7537 39.201 31.4076 37.7643C30.0615 36.3257 29.3884 34.4521 29.3884 32.1417V32.1397Z" fill="white"/>
<path d="M56.6907 25.3107C56.3247 24.7951 55.7815 24.5372 55.0494 24.5372C54.6145 24.5372 54.2209 24.6593 53.8686 24.8895C53.5163 25.1198 53.2172 25.474 52.9594 25.9345C52.5107 25.4051 52.0088 25.0115 51.4263 24.7537C50.8556 24.4959 50.1904 24.3739 49.4445 24.3739C47.5454 24.3739 45.9296 25.1198 44.613 26.6135C43.2826 28.1072 42.6174 29.9513 42.6174 32.1377C42.6174 34.3242 43.2688 36.1958 44.5441 37.6757C45.8332 39.1557 47.4076 39.8878 49.2811 39.8878C50.027 39.8878 50.7198 39.752 51.3436 39.4666C51.9813 39.1813 52.5107 38.7601 52.9594 38.2189C53.1896 38.7483 53.475 39.1281 53.8135 39.3722C54.152 39.6162 54.5594 39.7382 55.0494 39.7382C55.7815 39.7382 56.3247 39.4804 56.6789 38.951C57.0312 38.4216 57.2221 37.6206 57.2221 36.5481V27.7136C57.2221 26.6273 57.045 25.8263 56.6927 25.3107H56.6907ZM50.8556 37.3904C50.8556 37.3904 50.8005 37.9198 50.584 38.1107C50.3675 38.3134 48.9151 38.2878 48.9151 38.2878C48.9151 38.2878 47.9508 38.3154 47.7756 38.0713C47.5847 37.8135 47.5729 37.4337 47.5454 37.2172C47.5316 36.9869 47.5454 36.7429 47.7618 36.3493C47.9645 35.9419 47.9114 35.6428 47.9114 35.6428L47.8307 35.1134L47.6536 33.8519C47.6536 33.8519 47.5591 33.1867 47.5316 33.0785C47.5178 32.9702 47.5591 32.9427 47.5591 32.9427L47.5729 32.9013C47.5729 32.9013 47.6398 30.8251 47.5454 30.7837C47.4647 30.7286 47.504 30.5928 47.504 30.5928C47.504 30.5928 47.5454 30.5122 47.6536 30.1579C47.7756 29.7919 47.9665 29.29 47.9665 29.29C47.9665 29.29 48.1299 28.7882 48.2381 28.4477C48.3326 28.0954 48.3739 27.688 48.3739 27.688L48.4152 27.3889L48.429 26.8733L48.4152 26.832C48.307 26.7375 48.3601 26.6293 48.3601 26.6293L48.427 26.4797L48.4408 26.4128L48.4132 26.399L48.3463 26.3852V26.2081L48.3739 26.153C48.4014 26.0034 48.551 25.9896 48.551 25.9896C49.0529 25.8676 49.5016 25.9483 49.6767 25.9759C49.8401 26.0034 49.8538 26.153 49.8538 26.153C49.8952 26.2081 49.8952 26.3557 49.8952 26.3557L49.8538 26.3695V26.3832H49.7869C49.7869 26.3832 49.7869 26.4108 49.8676 26.5741C49.9345 26.7375 49.8263 26.7906 49.8125 26.8182C49.7987 26.8457 49.8125 27.0898 49.8125 27.0898C49.8125 27.0898 49.8932 27.7825 49.9345 27.999C49.9759 28.2155 50.1648 28.8807 50.1648 28.8807L50.4364 29.5734C50.4364 29.5734 50.7749 30.5495 50.8024 30.6184C50.8162 30.6991 50.7611 30.7267 50.7611 30.7267C50.7611 30.7267 50.7886 32.4231 50.7886 32.6258V32.9387C50.83 32.9525 50.83 33.0194 50.83 33.0194L50.7217 33.7653C50.7217 33.7653 50.5859 34.9048 50.519 35.381C50.4502 35.8691 50.5053 35.9655 50.5466 36.1131C50.5879 36.2627 50.7768 36.5874 50.7768 36.5874C50.9402 37.0086 50.8575 37.3884 50.8575 37.3884L50.8556 37.3904Z" fill="white"/>
</g>
<defs>
<clipPath id="clip0_12861_2120">
<rect width="57.2202" height="40" fill="white"/>
</clipPath>
</defs>
</svg>
